<svg xmlns="http://www.w3.org/2000/svg" width="48.688" height="51.437" viewBox="0 0 48.688 51.437">
  <defs>
    <style>
      .cls-1 {
        fill: #263238;
        fill-rule: evenodd;
      }
    </style>
  </defs>
  <path class="cls-1" d="M641.855,168.8a1.61,1.61,0,0,0-1-1.489l-22.746-9.342a1.611,1.611,0,0,0-1.224,0l-22.745,9.342a1.61,1.61,0,0,0-1,1.489v29.556a1.609,1.609,0,0,0,1,1.489l22.745,9.342a1.606,1.606,0,0,0,1.222,0c0.02-.006-0.841.347,22.748-9.341a1.609,1.609,0,0,0,1-1.489V168.8ZM617.5,176.535l-8.381-3.442,18.113-7.9,8.941,3.672Zm-21.135-5.2,7.231,2.969v8.379a1.611,1.611,0,0,0,3.221,0v-7.055l9.073,3.726v25.939l-19.525-8.018v-25.94ZM617.5,161.2l5.583,2.293-18.112,7.9-6.143-2.522Zm1.611,18.157,19.525-8.019v25.94l-19.525,8.018V179.355Z" transform="translate(-593.156 -157.875)"/>
</svg>
