<svg xmlns="http://www.w3.org/2000/svg" width="47.126" height="47.126" viewBox="0 0 47.126 47.126">
  <defs>
    <style>
      .cls-1 {
        fill: #37474f;
        fill-rule: evenodd;
      }
    </style>
  </defs>
  <path class="cls-1" d="M628.937,289.41h-11.5a1.643,1.643,0,1,1,0-3.285h11.5A1.643,1.643,0,1,1,628.937,289.41Zm-23,1.665a1.624,1.624,0,0,1-1.161-.481l-1.643-1.644a1.642,1.642,0,1,1,2.322-2.322l0.482,0.482,3.768-3.768a1.642,1.642,0,1,1,2.322,2.322l-4.929,4.93a1.644,1.644,0,0,1-1.161.481h0Zm23,13.671h-11.5a1.643,1.643,0,0,1,0-3.286h11.5A1.643,1.643,0,0,1,628.937,304.746Zm-23,1.665a1.621,1.621,0,0,1-1.161-.482l-1.643-1.643a1.642,1.642,0,1,1,2.322-2.322l0.482,0.481,3.768-3.768A1.642,1.642,0,1,1,612.023,301l-4.929,4.93a1.641,1.641,0,0,1-1.161.482h0ZM623.2,318.175H610.052c-11.9,0-16.978-5.082-16.978-16.978V288.051c0-11.895,5.082-16.978,16.978-16.978H623.2c11.9,0,16.979,5.083,16.979,16.978V301.2C640.176,313.093,635.093,318.175,623.2,318.175Zm-13.145-43.816c-10.1,0-13.692,3.593-13.692,13.692V301.2c0,10.1,3.593,13.692,13.692,13.692H623.2c10.1,0,13.693-3.593,13.693-13.692V288.051c0-10.1-3.593-13.692-13.693-13.692H610.052Z" transform="translate(-593.062 -271.062)"/>
</svg>
