<svg xmlns="http://www.w3.org/2000/svg" width="51.624" height="44.25" viewBox="0 0 51.624 44.25">
  <defs>
    <style>
      .cls-1 {
        fill: #37474f;
        fill-rule: evenodd;
      }
    </style>
  </defs>
  <path class="cls-1" d="M639.974,401.155h-1.845V388.246a7.376,7.376,0,0,0-7.376-7.376H601.246a7.376,7.376,0,0,0-7.376,7.376v12.909h-1.844a1.845,1.845,0,0,0,0,3.689h1.844v12.909a7.376,7.376,0,0,0,7.376,7.376h29.507a7.376,7.376,0,0,0,7.376-7.376V404.844h1.845A1.845,1.845,0,0,0,639.974,401.155Zm-5.533,16.6a3.688,3.688,0,0,1-3.688,3.688H601.246a3.688,3.688,0,0,1-3.688-3.688V404.844h36.883v12.909Zm0-16.6h-5.532V390.091a1.844,1.844,0,1,0-3.688,0v11.064h-3.689V390.091a1.844,1.844,0,1,0-3.688,0v11.064h-3.688V390.091a1.845,1.845,0,1,0-3.689,0v11.064h-3.688V390.091a1.844,1.844,0,1,0-3.688,0v11.064h-5.533V388.246a3.688,3.688,0,0,1,3.688-3.688h29.507a3.688,3.688,0,0,1,3.688,3.688v12.909Zm-29.506,16.6a1.845,1.845,0,0,0,1.844-1.845v-5.532a1.844,1.844,0,0,0-3.688,0v5.532A1.844,1.844,0,0,0,604.935,417.753Zm7.376,0a1.845,1.845,0,0,0,1.845-1.845v-5.532a1.845,1.845,0,0,0-3.689,0v5.532A1.845,1.845,0,0,0,612.311,417.753Zm7.377,0a1.844,1.844,0,0,0,1.844-1.845v-5.532a1.844,1.844,0,0,0-3.688,0v5.532A1.845,1.845,0,0,0,619.688,417.753Zm7.377,0a1.845,1.845,0,0,0,1.844-1.845v-5.532a1.844,1.844,0,1,0-3.688,0v5.532A1.844,1.844,0,0,0,627.065,417.753Z" transform="translate(-590.188 -380.875)"/>
</svg>
